Sex Pot R5 XVID.FEEL-FREE

Genre:Adventure | Comedy
Language:English
IMDb:http://www.imdb.com/title/tt1473801/
Source:DVDR5
Encoder: Tony2
............................................
General
Complete name : Sex Pot R5 XVID.FEEL-FREE
Format : AVI
Format/Info : Audio Video Interleave
File size : 882 MiB
Duration : 1h 31mn
Overall bit rate : 1 340 Kbps
.............................................
Video
Format : xvid
Codec ID : xvid
Duration : 1h 31mn
Bit rate : 1 199 Kbps
Width : 652 pixels
Height : 352 pixels
Display aspect ratio : 1.852
Frame rate : 25.000 fps
Resolution : 24 bits
Bits/(Pixel*Frame) : 0.209
Stream size : 789 MiB (89%)
.............................................
Audio
ID : 1
Format : MPEG Audio
Format version : Version 1
Format profile : Layer 3
Format settings, Mode : Joint stereo / MS Stereo
Codec ID : 55
Codec ID/Hint : MP3
Duration : 1h 31mn
Bit rate mode : Constant
Bit rate : 128 Kbps
Channel(s) : 2 channels
Sampling rate : 48.0 KHz
Resolution : 16 bits
Stream size : 84.2 MiB (10%)
Alignment : Aligned on interleaves
Interleave, duration : 24 ms (0.60 video frame)
Interleave, preload duration : 24 ms
.............................................
Plot:
Two potheads find a stash of weed that makes women very horny